<svg xmlns="http://www.w3.org/2000/svg" xmlns:xlink="http://www.w3.org/1999/xlink" viewBox="0 0 750 452.25"><defs><style>.cls-1{fill:#efefef;}.cls-2,.cls-32{fill:#001260;}.cls-3{fill:#0ca87f;}.cls-4{fill:#83aa17;}.cls-5{fill:#ba173a;}.cls-6{fill:#572182;}.cls-7{fill:#003968;}.cls-8{fill:#0071a3;}.cls-9{fill:#dd6e00;}.cls-10{fill:#ff9520;}.cls-11{fill:#00b6b4;}.cls-12{fill:#009e9a;}.cls-13{fill:#006c9b;}.cls-14{fill:#005d8c;}.cls-15{fill:#8642b2;}.cls-16{fill:#6c3596;}.cls-17{fill:#ee3c5a;}.cls-18{fill:#c4264b;}.cls-19{fill:#bdce29;}.cls-20{fill:#9da321;}.cls-21{fill:#1ac69d;}.cls-22{font-size:20px;}.cls-22,.cls-23,.cls-24,.cls-25,.cls-26,.cls-27{fill:#fff;font-family:Raleway-Bold, Raleway;font-weight:700;}.cls-23{font-size:15px;}.cls-24{font-size:19px;}.cls-25{font-size:17px;}.cls-26{font-size:22px;}.cls-27{font-size:18px;}.cls-28{font-size:9px;fill:#62758b;}.cls-28,.cls-31{font-family:Raleway-SemiBold, Raleway;font-weight:600;}.cls-29,.cls-31{fill:#788fa0;}.cls-30{fill:#c4c4c4;}.cls-31{font-size:14px;}.cls-32{font-size:34.97px;font-family:Raleway-Black, Raleway;font-weight:800;}.cls-33{fill:url(#linear-gradient);}.cls-34{fill:url(#linear-gradient-2);}.cls-35{fill:url(#linear-gradient-3);}.cls-36{fill:url(#linear-gradient-4);}.cls-37{fill:url(#linear-gradient-5);}.cls-38{fill:url(#linear-gradient-6);}.cls-39{fill:url(#linear-gradient-7);}.cls-40{fill:url(#linear-gradient-8);}.cls-41{fill:url(#linear-gradient-9);}.cls-42{fill:url(#linear-gradient-10);}.cls-43{fill:url(#linear-gradient-11);}.cls-44{fill:url(#linear-gradient-12);}.cls-45{fill:url(#linear-gradient-13);}.cls-46{fill:url(#linear-gradient-14);}.cls-47{fill:url(#linear-gradient-15);}.cls-48{fill:url(#linear-gradient-16);}.cls-49{fill:url(#linear-gradient-17);}.cls-50{fill:url(#linear-gradient-18);}.cls-51{fill:url(#linear-gradient-19);}.cls-52{fill:url(#linear-gradient-20);}.cls-53{fill:url(#linear-gradient-21);}</style><linearGradient id="linear-gradient" x1="105.21" y1="306.22" x2="115.76" y2="306.22" gradientUnits="userSpaceOnUse"><stop offset="0" stop-color="#bd1e2d"/><stop offset="0.16" stop-color="#cd1d2a"/><stop offset="0.41" stop-color="#de1d27"/><stop offset="0.68" stop-color="#e91c25"/><stop offset="1" stop-color="#ec1c24"/></linearGradient><linearGradient id="linear-gradient-2" x1="94.62" y1="306.23" x2="105.22" y2="306.23" gradientUnits="userSpaceOnUse"><stop offset="0" stop-color="#929497"/><stop offset="0.03" stop-color="#999b9e"/><stop offset="0.2" stop-color="#b8babc"/><stop offset="0.38" stop-color="#d1d2d3"/><stop offset="0.56" stop-color="#e2e3e4"/><stop offset="0.76" stop-color="#edeeee"/><stop offset="1" stop-color="#f0f1f1"/></linearGradient><linearGradient id="linear-gradient-3" x1="83.3" y1="306.01" x2="93.11" y2="306.01" gradientUnits="userSpaceOnUse"><stop offset="0" stop-color="#006838"/><stop offset="0.04" stop-color="#006d3a"/><stop offset="0.25" stop-color="#008644"/><stop offset="0.48" stop-color="#00974b"/><stop offset="0.72" stop-color="#00a250"/><stop offset="1" stop-color="#00a551"/></linearGradient><linearGradient id="linear-gradient-4" x1="191.77" y1="269.18" x2="202.31" y2="269.18" xlink:href="#linear-gradient"/><linearGradient id="linear-gradient-5" x1="181.17" y1="269.19" x2="191.77" y2="269.19" xlink:href="#linear-gradient-2"/><linearGradient id="linear-gradient-6" x1="169.85" y1="268.97" x2="179.66" y2="268.97" xlink:href="#linear-gradient-3"/><linearGradient id="linear-gradient-7" x1="278.97" y1="231.3" x2="289.52" y2="231.3" xlink:href="#linear-gradient"/><linearGradient id="linear-gradient-8" x1="268.38" y1="231.31" x2="278.98" y2="231.31" xlink:href="#linear-gradient-2"/><linearGradient id="linear-gradient-9" x1="257.05" y1="231.09" x2="266.87" y2="231.09" xlink:href="#linear-gradient-3"/><linearGradient id="linear-gradient-10" x1="364.31" y1="191.05" x2="374.85" y2="191.05" xlink:href="#linear-gradient"/><linearGradient id="linear-gradient-11" x1="353.72" y1="191.06" x2="364.32" y2="191.06" xlink:href="#linear-gradient-2"/><linearGradient id="linear-gradient-12" x1="342.39" y1="190.84" x2="352.2" y2="190.84" xlink:href="#linear-gradient-3"/><linearGradient id="linear-gradient-13" x1="451.69" y1="151.97" x2="462.23" y2="151.97" xlink:href="#linear-gradient"/><linearGradient id="linear-gradient-14" x1="441.1" y1="151.98" x2="451.7" y2="151.98" xlink:href="#linear-gradient-2"/><linearGradient id="linear-gradient-15" x1="429.77" y1="151.76" x2="439.58" y2="151.76" xlink:href="#linear-gradient-3"/><linearGradient id="linear-gradient-16" x1="538.58" y1="112.54" x2="549.13" y2="112.54" xlink:href="#linear-gradient"/><linearGradient id="linear-gradient-17" x1="527.99" y1="112.55" x2="538.59" y2="112.55" xlink:href="#linear-gradient-2"/><linearGradient id="linear-gradient-18" x1="516.67" y1="112.33" x2="526.48" y2="112.33" xlink:href="#linear-gradient-3"/><linearGradient id="linear-gradient-19" x1="624.82" y1="72.36" x2="635.36" y2="72.36" xlink:href="#linear-gradient"/><linearGradient id="linear-gradient-20" x1="614.22" y1="72.37" x2="624.82" y2="72.37" xlink:href="#linear-gradient-2"/><linearGradient id="linear-gradient-21" x1="602.9" y1="72.15" x2="612.71" y2="72.15" xlink:href="#linear-gradient-3"/></defs><g id="OBJECTS"><polygon class="cls-1" points="0 452.25 750 452.25 750 49.35 0 401.25 0 452.25"/><polygon class="cls-2" points="128.66 361.66 68.04 361.66 68.04 289.27 98.35 273.06 128.66 289.27 128.66 361.66"/><polygon class="cls-2" points="215.54 321.88 154.93 321.88 154.93 249.5 185.23 233.29 215.54 249.5 215.54 321.88"/><polygon class="cls-2" points="302.42 282.11 241.81 282.11 241.81 209.73 272.12 193.51 302.42 209.73 302.42 282.11"/><polygon class="cls-2" points="389.31 242.34 328.69 242.34 328.69 169.95 359 153.74 389.31 169.95 389.31 242.34"/><polygon class="cls-2" points="476.19 202.57 415.57 202.57 415.57 130.18 445.88 113.97 476.19 130.18 476.19 202.57"/><polygon class="cls-2" points="563.07 162.79 502.45 162.79 502.45 90.41 532.76 74.2 563.07 90.41 563.07 162.79"/><polygon class="cls-2" points="649.95 123.02 589.34 123.02 589.34 50.64 619.64 34.42 649.95 50.64 649.95 123.02"/><path class="cls-3" d="M661.34,200.31H581.89c-9.85,0-17.83-6.69-17.83-14.94L576,145.3H679.17v40.07C679.17,193.62,671.18,200.31,661.34,200.31Z" transform="translate(0 -47.75)"/><path class="cls-4" d="M575.46,240.25H496c-9.85,0-17.83-6.69-17.83-14.94l11.93-40.07H593.28v40.07C593.28,233.56,585.3,240.25,575.46,240.25Z" transform="translate(0 -47.75)"/><path class="cls-5" d="M489.57,280.19H410.12c-9.84,0-17.82-6.69-17.82-14.95l11.92-40.06H507.4v40.06C507.4,273.5,499.42,280.19,489.57,280.19Z" transform="translate(0 -47.75)"/><path class="cls-6" d="M403.69,320.13H324.24c-9.84,0-17.83-6.69-17.83-14.95l11.93-40.06H421.52v40.06C421.52,313.44,413.54,320.13,403.69,320.13Z" transform="translate(0 -47.75)"/><path class="cls-7" d="M317.81,360.07H238.36c-9.85,0-17.83-6.7-17.83-14.95l11.93-40.07H335.64v40.07C335.64,353.37,327.66,360.07,317.81,360.07Z" transform="translate(0 -47.75)"/><path class="cls-8" d="M231.93,400H152.48c-9.85,0-17.83-6.69-17.83-14.94L146.58,345H249.75v40.07C249.75,393.31,241.77,400,231.93,400Z" transform="translate(0 -47.75)"/><path class="cls-9" d="M146.05,439.94H66.59c-9.84,0-17.82-6.69-17.82-14.95l11.92-40.06H163.87V425C163.87,433.25,155.89,439.94,146.05,439.94Z" transform="translate(0 -47.75)"/><path class="cls-10" d="M60.69,337.18H185.94a0,0,0,0,1,0,0v42.1A17.76,17.76,0,0,1,168.18,397H78.46a17.76,17.76,0,0,1-17.76-17.76v-42.1A0,0,0,0,1,60.69,337.18Z"/><path class="cls-9" d="M142,398.6c0,9,8.69,16.26,19.4,16.26h24.54V384.93H142Z" transform="translate(0 -47.75)"/><path class="cls-11" d="M146.58,297.24H271.82a0,0,0,0,1,0,0v42.1a17.76,17.76,0,0,1-17.76,17.76H164.34a17.76,17.76,0,0,1-17.76-17.76v-42.1A0,0,0,0,1,146.58,297.24Z"/><path class="cls-12" d="M227.29,358c0,9,8.69,16.26,19.4,16.26h25.13V345H227.29Z" transform="translate(0 -47.75)"/><path class="cls-13" d="M339.94,364.91H250.22a17.76,17.76,0,0,1-17.76-17.76v-42.1H357.7v42.1A17.76,17.76,0,0,1,339.94,364.91Z" transform="translate(0 -47.75)"/><path class="cls-14" d="M314.56,318.72c0,9,8.69,16.26,19.4,16.26H357.7V305.05H314.56Z" transform="translate(0 -47.75)"/><path class="cls-15" d="M318.34,217.37H443.59a0,0,0,0,1,0,0v42.1a17.76,17.76,0,0,1-17.76,17.76H336.1a17.76,17.76,0,0,1-17.76-17.76v-42.1A0,0,0,0,1,318.34,217.37Z"/><path class="cls-16" d="M399.85,276.36c0,9,8.68,16.26,19.4,16.26h24.34v-27.5H399.85Z" transform="translate(0 -47.75)"/><path class="cls-17" d="M404.22,177.43H529.47a0,0,0,0,1,0,0v42.1a17.76,17.76,0,0,1-17.76,17.76H422a17.76,17.76,0,0,1-17.76-17.76v-42.1A0,0,0,0,1,404.22,177.43Z"/><path class="cls-18" d="M485.53,236.42c0,9,8.69,16.26,19.4,16.26h24.54v-27.5H485.53Z" transform="translate(0 -47.75)"/><path class="cls-19" d="M490.11,137.49H615.35a0,0,0,0,1,0,0v42.1a17.76,17.76,0,0,1-17.76,17.76H507.87a17.76,17.76,0,0,1-17.76-17.76v-42.1A0,0,0,0,1,490.11,137.49Z"/><path class="cls-20" d="M571.61,196.48c0,9,8.69,16.27,19.4,16.27h24.34V185.24H571.61Z" transform="translate(0 -47.75)"/><path class="cls-21" d="M576,97.55H701.23a0,0,0,0,1,0,0v42.1a17.76,17.76,0,0,1-17.76,17.76H593.75A17.76,17.76,0,0,1,576,139.65V97.55A0,0,0,0,1,576,97.55Z"/><text class="cls-22" transform="translate(70.41 373.11)">9000 BC</text><text class="cls-23" transform="translate(165.22 329.31)">7000BC / <tspan x="11.69" y="14">500BC</tspan></text><text class="cls-24" transform="translate(257.45 294.96)">AD 79</text><text class="cls-25" transform="translate(326.57 256.7)">19th Century</text><text class="cls-25" transform="translate(412.24 215.58)">20th century</text><text class="cls-26" transform="translate(521.93 172.18)">1945</text><text class="cls-27" transform="translate(586.18 132.34)">21st century</text><text class="cls-28" transform="translate(38.01 175.33)">Scientists found gypsum <tspan x="0" y="10">usage at Catal- Huyuk, one of </tspan><tspan x="0" y="20">the oldest known cities in the </tspan><tspan x="0" y="30">world, now in Turkey.</tspan></text><text class="cls-28" transform="translate(119.79 128.64)">Gypsum foor screeds at <tspan x="0" y="10">Israel / Egyptian pyramids </tspan><tspan x="0" y="20">/ Greek plaster works.</tspan></text><text class="cls-28" transform="translate(215.16 68.95)">Pompeii – city lost in AD 79 <tspan x="0" y="10">by an eruption of Mount </tspan><tspan x="0" y="20">Vesuvius- revealed some of </tspan><tspan x="0" y="30">the most beautiful plaster </tspan><tspan x="0" y="40">works by the Romans.</tspan></text><text class="cls-28" transform="translate(315.42 390.35)">19th century witnessed the <tspan x="0" y="10">beginning of gypsum boards </tspan><tspan x="0" y="20">usage in construction.</tspan></text><text class="cls-28" transform="translate(416.27 325.84)">After World War 1, there was a <tspan x="0" y="10">rapid increase in the demand </tspan><tspan x="0" y="20">for gypsum boards and </tspan><tspan x="0" y="30">gypsum-based products in </tspan><tspan x="0" y="40">construction.</tspan></text><text class="cls-28" transform="translate(504.28 271.05)">After World War 2, more <tspan x="0" y="10">innovations happened in </tspan><tspan x="0" y="20">gypsum technology to </tspan><tspan x="0" y="30">enhance the board properties.</tspan></text><text class="cls-28" transform="translate(607.23 205.47)">Now gypsum can be found <tspan x="2.28" y="10">everywhere in the form of </tspan><tspan x="-6.81" y="20">plaster boards, fbrous plaster, </tspan><tspan x="-5.33" y="30">plaster mouldings, wall putty, </tspan><tspan x="-4.51" y="40">cement, cornices, crockeries, </tspan><tspan x="-9.67" y="50">dental products and a lot more.</tspan></text><rect class="cls-29" x="376.86" y="274.31" width="1.69" height="86.56"/><path class="cls-29" d="M381.15,321.5a3.46,3.46,0,1,1-3.44-3.82A3.64,3.64,0,0,1,381.15,321.5Z" transform="translate(0 -47.75)"/><path class="cls-29" d="M381.15,408.61a3.46,3.46,0,1,1-3.44-3.82A3.64,3.64,0,0,1,381.15,408.61Z" transform="translate(0 -47.75)"/><rect class="cls-29" x="471.1" y="231.52" width="0.92" height="76.51"/><path class="cls-29" d="M473.45,279a1.89,1.89,0,1,1-1.88-1.8A1.84,1.84,0,0,1,473.45,279Z" transform="translate(0 -47.75)"/><path class="cls-29" d="M473.45,355.78a1.89,1.89,0,1,1-1.88-1.8A1.84,1.84,0,0,1,473.45,355.78Z" transform="translate(0 -47.75)"/><rect class="cls-29" x="554.14" y="188.53" width="0.55" height="70.94"/><circle class="cls-29" cx="554.42" cy="188.37" r="1.12"/><path class="cls-29" d="M555.54,307.22a1.13,1.13,0,1,1-1.12-1.12A1.13,1.13,0,0,1,555.54,307.22Z" transform="translate(0 -47.75)"/><rect class="cls-30" x="98.07" y="213.82" width="0.57" height="68.05"/><path class="cls-30" d="M99.52,261.4a1.17,1.17,0,0,1-2.34,0,1.17,1.17,0,1,1,2.34,0Z" transform="translate(0 -47.75)"/><path class="cls-30" d="M99.52,329.62a1.17,1.17,0,0,1-2.34,0,1.17,1.17,0,1,1,2.34,0Z" transform="translate(0 -47.75)"/><rect class="cls-30" x="184.73" y="161.98" width="1" height="80.36"/><path class="cls-30" d="M187.28,209.43a2,2,0,1,1-2.05-2A2,2,0,0,1,187.28,209.43Z" transform="translate(0 -47.75)"/><path class="cls-30" d="M187.28,290.09a2,2,0,1,1-2.05-2A2,2,0,0,1,187.28,290.09Z" transform="translate(0 -47.75)"/><rect class="cls-30" x="271.14" y="121.59" width="1.96" height="78.62"/><path class="cls-30" d="M276.11,168.76a4,4,0,1,1-4-4A4,4,0,0,1,276.11,168.76Z" transform="translate(0 -47.75)"/><path class="cls-30" d="M276.11,248a4,4,0,1,1-4-4A4,4,0,0,1,276.11,248Z" transform="translate(0 -47.75)"/><rect class="cls-29" x="653.41" y="148.78" width="1" height="41.93"/><path class="cls-29" d="M656,196.45c0,.28-.92.51-2,.51s-2-.23-2-.51.92-.51,2-.51S656,196.17,656,196.45Z" transform="translate(0 -47.75)"/><path class="cls-29" d="M656,238.46c0,.28-.92.51-2,.51s-2-.23-2-.51.92-.51,2-.51S656,238.18,656,238.46Z" transform="translate(0 -47.75)"/><text class="cls-31" transform="translate(215.91 22.48)">TIMELINE</text><text class="cls-32" transform="translate(45.79 29.9)">GYPSUM</text><path class="cls-29" d="M338.66,78.47H210.94a.56.56,0,0,1,0-1.12H338.66a.56.56,0,1,1,0,1.12Z" transform="translate(0 -47.75)"/><polygon class="cls-33" points="115.76 297.48 105.21 303.56 105.21 314.95 115.75 308.87 115.75 297.49 115.76 297.5 115.76 297.48"/><polygon class="cls-34" points="105.2 303.58 94.64 297.48 94.62 297.5 94.62 308.87 105.19 314.96 105.2 314.97 105.21 314.97 105.22 314.97 105.21 314.96 105.21 314.95 105.21 303.56 105.2 303.58"/><polygon class="cls-35" points="93.11 297.48 83.3 303.14 83.3 314.53 93.1 308.87 93.1 297.49 93.11 297.5 93.11 297.48"/><polygon class="cls-36" points="202.31 260.45 191.76 266.53 191.76 277.92 202.3 271.84 202.3 260.46 202.31 260.46 202.31 260.45"/><polygon class="cls-37" points="191.75 266.54 181.19 260.45 181.17 260.46 181.17 271.83 191.74 277.93 191.75 277.94 191.76 277.93 191.77 277.94 191.76 277.93 191.76 277.92 191.76 266.53 191.75 266.54"/><polygon class="cls-38" points="179.66 260.45 169.85 266.11 169.85 277.5 179.65 271.84 179.65 260.46 179.66 260.46 179.66 260.45"/><polygon class="cls-39" points="289.52 222.57 278.97 228.65 278.97 240.04 289.51 233.96 289.51 222.58 289.52 222.58 289.52 222.57"/><polygon class="cls-40" points="278.96 228.66 268.4 222.57 268.38 222.59 268.38 233.96 278.95 240.05 278.96 240.06 278.97 240.06 278.98 240.06 278.97 240.05 278.97 240.04 278.97 228.65 278.96 228.66"/><polygon class="cls-41" points="266.87 222.57 257.06 228.23 257.06 239.62 266.86 233.96 266.86 222.58 266.87 222.58 266.87 222.57"/><polygon class="cls-42" points="374.85 182.32 364.31 188.4 364.31 199.79 374.85 193.71 374.85 182.33 374.85 182.33 374.85 182.32"/><polygon class="cls-43" points="364.3 188.41 353.73 182.32 353.72 182.34 353.72 193.71 364.29 199.8 364.3 199.81 364.31 199.81 364.32 199.81 364.31 199.8 364.31 199.79 364.31 188.4 364.3 188.41"/><polygon class="cls-44" points="352.2 182.32 342.39 187.98 342.39 199.37 352.19 193.71 352.19 182.33 352.2 182.33 352.2 182.32"/><polygon class="cls-45" points="462.23 143.24 451.69 149.31 451.69 160.7 462.23 154.62 462.23 143.25 462.23 143.25 462.23 143.24"/><polygon class="cls-46" points="451.68 149.33 441.11 143.24 441.1 143.25 441.1 154.62 451.67 160.71 451.68 160.72 451.69 160.72 451.7 160.72 451.69 160.71 451.69 160.7 451.69 149.31 451.68 149.33"/><polygon class="cls-47" points="439.58 143.24 429.77 148.89 429.77 160.28 439.57 154.62 439.57 143.25 439.58 143.25 439.58 143.24"/><polygon class="cls-48" points="549.13 103.8 538.58 109.88 538.58 121.27 549.12 115.19 549.12 103.81 549.13 103.81 549.13 103.8"/><polygon class="cls-49" points="538.57 109.9 528.01 103.8 527.99 103.82 527.99 115.19 538.56 121.28 538.57 121.29 538.58 121.29 538.59 121.29 538.58 121.28 538.58 121.27 538.58 109.88 538.57 109.9"/><polygon class="cls-50" points="526.48 103.8 516.66 109.46 516.66 120.85 526.47 115.19 526.47 103.81 526.48 103.81 526.48 103.8"/><polygon class="cls-51" points="635.36 63.63 624.82 69.7 624.82 81.09 635.35 75.01 635.35 63.64 635.36 63.64 635.36 63.63"/><polygon class="cls-52" points="624.8 69.72 614.24 63.63 614.23 63.64 614.23 75.01 624.79 81.1 624.81 81.11 624.82 81.11 624.82 81.11 624.82 81.1 624.82 81.09 624.82 69.7 624.8 69.72"/><polygon class="cls-53" points="612.71 63.63 602.9 69.28 602.9 80.67 612.7 75.01 612.7 63.64 612.71 63.64 612.71 63.63"/></g></svg>